# xmcd
#
# Track frame offsets:
# 150
# 13265
# 24874
# 42597
# 53568
# 67877
# 87100
# 96233
# 114136
# 128575
# 140538
# 155178
# 174443
# 189399
# 199542
# 211335
#
# Disc length: 3181 seconds
#
# Revision: 0
# Processed by: cddbd v1.4PL0 Copyright (c) Steve Scherf et al.
# Submitted via: Audion 3.0.2 (http://www.panic.com/audion/)
#
DISCID=ce0c6b10
DTITLE=Hector The Bad Hombre - Hector Nectar
DYEAR=1900
DGENRE=
TTITLE0=Life Support
TTITLE1=Sketchy At Best
TTITLE2=Pron Ska
TTITLE3=Five Dollars at the Door
TTITLE4=Skate or Die
TTITLE5=Bluebeard's Blueballs
TTITLE6=Intimidator
TTITLE7=Johnny Too Bad and The Strikeouts
TTITLE8=520 and Counting
TTITLE9=Insignificant
TTITLE10=Keasby Nights
TTITLE11=Intro/Life Support (Live)
TTITLE12=520 and Counting (Live)
TTITLE13=Five Dollars at the Door (Live)
TTITLE14=Bumblebee Tuna (Live)
TTITLE15=Comdey (Live)
EXTD=
EXTT0=
EXTT1=
EXTT2=
EXTT3=
EXTT4=
EXTT5=
EXTT6=
EXTT7=
EXTT8=
EXTT9=
EXTT10=
EXTT11=
EXTT12=
EXTT13=
EXTT14=
EXTT15=
PLAYORDER=
